<svg width="120" height="29" viewBox="0 0 120 29" fill="none" xmlns="http://www.w3.org/2000/svg">
  <path d="M4.46772 11.6019V16.7574H8.00002C10.8493 16.7574 12.7262 15.6361 12.7262 12.9552C12.7262 10.2743 10.8185 9.08854 8.00002 9.08854H1.90771V6.67188H7.83387C12.3693 6.67188 15.2493 8.9081 15.2493 12.981C15.2493 17.0539 12.3693 19.2514 7.8031 19.2514H4.46772V23.4274H1.90771V11.6019H4.46772Z" fill="black"/>
  <path d="M31.6738 15.0459C31.6641 13.8381 31.3135 12.6603 30.666 11.6608C30.0186 10.6612 29.1033 9.88452 28.0353 9.42847C26.9673 8.97242 25.7943 8.85738 24.664 9.09784C23.5338 9.33829 22.4967 9.92349 21.6832 10.7798C20.8698 11.6361 20.3164 12.7252 20.0927 13.9101C19.8691 15.095 19.985 16.3227 20.4261 17.4388C20.8672 18.5548 21.6136 19.5092 22.5715 20.182C23.5294 20.8548 24.6559 21.2158 25.8092 21.2197C26.5665 21.2334 27.3189 21.0907 28.0235 20.7998C28.728 20.5088 29.371 20.0754 29.9156 19.5243C30.4602 18.9731 30.8958 18.315 31.1975 17.5875C31.4991 16.86 31.661 16.0774 31.6738 15.2844C31.68 15.205 31.68 15.1253 31.6738 15.0459ZM17.4215 15.0459C17.4118 13.3049 17.8953 11.5999 18.8109 10.1466C19.7265 8.69335 21.033 7.55702 22.5653 6.88135C24.0975 6.20567 25.7867 6.02099 27.4192 6.35066C29.0517 6.68033 30.5542 7.50954 31.7367 8.73343C32.9192 9.95733 33.7285 11.5209 34.0624 13.2265C34.3963 14.9322 34.2398 16.7031 33.6126 18.3156C32.9853 19.928 31.9156 21.3094 30.5387 22.2852C29.1618 23.261 27.5395 23.7873 25.8769 23.7975H25.8092C23.5971 23.8095 21.471 22.9012 19.8982 21.2722C18.3254 19.6432 17.4346 17.4269 17.4215 15.1104V15.0459Z" fill="black"/>
  <path d="M37.5016 6.67004H39.9631V9.89226C41.0031 7.82359 42.9477 6.60559 45.637 6.60559V9.24781C42.7508 9.18337 39.9631 10.8783 39.9631 15.4603V23.432H37.5016V6.67004Z" fill="black"/>
  <path d="M50.6892 1.71875V6.66808H55.5815V9.24586H50.6892V18.2745C50.6892 21.0521 52.5354 21.7996 55.7415 21.0199V23.3914C51.2369 24.3774 48.2277 22.6825 48.2277 18.5065V1.75097L50.6892 1.71875Z" fill="black"/>
  <path d="M59.1754 6.67004H61.6369V23.4256H59.1754V6.67004ZM59.1077 1.37915H61.6984V4.09226H59.1077V1.37915Z" fill="black"/>
  <path d="M66.0738 6.66927H68.5353V9.07949C69.181 8.18817 70.0202 7.47075 70.9833 6.98662C71.9464 6.50249 73.0058 6.26557 74.0738 6.29549C78.0246 6.29549 80.5846 8.91193 80.5846 13.1137V23.4248H78.123V13.4166C78.123 10.5037 76.5046 8.77015 73.6861 8.77015C72.3523 8.72847 71.0572 9.24236 70.0848 10.1992C69.1123 11.1559 68.5418 12.4775 68.4984 13.8742C68.4984 14.0095 68.4984 14.1384 68.4984 14.2673V23.4313H66.0369L66.0738 6.66927Z" fill="black"/>
  <path d="M97.9446 15.047C97.9928 13.4558 97.437 11.9094 96.399 10.7463C95.361 9.58321 93.9253 8.89811 92.4061 8.84096H92.0492C90.8756 8.83968 89.7281 9.20295 88.7517 9.88481C87.7753 10.5667 87.014 11.5365 86.5641 12.6715C86.1141 13.8066 85.9958 15.0559 86.224 16.2614C86.4522 17.467 87.0167 18.5745 87.8461 19.444C88.6755 20.3134 89.7325 20.9058 90.8834 21.146C92.0344 21.3862 93.2275 21.2636 94.3118 20.7936C95.3962 20.3235 96.323 19.5273 96.9751 18.5055C97.6273 17.4837 97.9753 16.2824 97.9753 15.0534L97.9446 15.047ZM83.563 15.0534C83.5563 12.753 84.4168 10.5427 85.9574 8.90283C87.4979 7.26295 89.5942 6.32595 91.7907 6.2954C92.9785 6.26471 94.1567 6.52488 95.2314 7.0552C96.3062 7.58552 97.2479 8.37134 97.9815 9.35007V6.66918H100.443V23.4247H97.9815V20.7503C97.2486 21.7294 96.3069 22.515 95.2318 23.0444C94.1568 23.5737 92.9783 23.832 91.7907 23.7985C89.5894 23.7781 87.4853 22.8462 85.9379 21.2065C84.3905 19.5667 83.5257 17.3523 83.5323 15.047" fill="black"/>
  <path d="M104.911 6.67004H107.372V9.89226C108.406 7.82359 110.351 6.60559 113.04 6.60559V9.24781C110.154 9.18337 107.372 10.8783 107.372 15.4603V23.432H104.911V6.67004Z" fill="black"/>
  <path d="M115.563 6.67004H118.025V23.4256H115.563V6.67004ZM115.502 1.37915H118.092V4.09226H115.502V1.37915Z" fill="black"/>
</svg>
